<svg width="45" height="45" viewBox="0 0 45 45" fill="none" xmlns="http://www.w3.org/2000/svg">
<g clip-path="url(#clip0_2_25)">
<path d="M41.3701 0.826172C41.6338 1.09863 41.8359 1.40625 41.9766 1.73145C42.1172 2.05664 42.1875 2.41699 42.1875 2.80371V2.8125V11.25C42.1875 12.8057 40.9307 14.0625 39.375 14.0625C37.8193 14.0625 36.5625 12.8057 36.5625 11.25V9.60645L27.2988 18.8613C26.2617 19.8984 24.5918 19.9688 23.4756 19.0107L15.4688 12.1377L7.45313 19.0107C6.27539 20.0215 4.5 19.8809 3.48926 18.7031C2.47852 17.5254 2.61914 15.75 3.79688 14.7393L13.6406 6.30176C14.6953 5.39648 16.251 5.39648 17.3057 6.30176L25.1719 13.043L32.5811 5.625H30.9375C29.3818 5.625 28.125 4.36816 28.125 2.8125C28.125 1.25684 29.3818 0 30.9375 0H39.375C40.1484 0 40.8516 0.316406 41.3613 0.817383L41.3701 0.826172ZM0 26.7188C0 24.3896 1.88965 22.5 4.21875 22.5H40.7812C43.1104 22.5 45 24.3896 45 26.7188V40.7812C45 43.1104 43.1104 45 40.7812 45H4.21875C1.88965 45 0 43.1104 0 40.7812V26.7188ZM4.21875 36.5625V40.7812H8.4375C8.4375 38.4521 6.54785 36.5625 4.21875 36.5625ZM8.4375 26.7188H4.21875V30.9375C6.54785 30.9375 8.4375 29.0479 8.4375 26.7188ZM40.7812 36.5625C38.4521 36.5625 36.5625 38.4521 36.5625 40.7812H40.7812V36.5625ZM36.5625 26.7188C36.5625 29.0479 38.4521 30.9375 40.7812 30.9375V26.7188H36.5625ZM28.125 33.75C28.125 32.2582 27.5324 30.8274 26.4775 29.7725C25.4226 28.7176 23.9918 28.125 22.5 28.125C21.0082 28.125 19.5774 28.7176 18.5225 29.7725C17.4676 30.8274 16.875 32.2582 16.875 33.75C16.875 35.2418 17.4676 36.6726 18.5225 37.7275C19.5774 38.7824 21.0082 39.375 22.5 39.375C23.9918 39.375 25.4226 38.7824 26.4775 37.7275C27.5324 36.6726 28.125 35.2418 28.125 33.75Z" fill="#1E3050"/>
</g>
<defs>
<clipPath id="clip0_2_25">
<rect width="45" height="45" fill="white"/>
</clipPath>
</defs>
</svg>
