<svg width="20" height="23" viewBox="0 0 20 23" fill="none" xmlns="http://www.w3.org/2000/svg">
<path d="M11.4286 3.57142C11.4286 2.78125 10.7902 2.14285 10 2.14285C9.20982 2.14285 8.57143 2.78125 8.57143 3.57142V9.99999H2.14286C1.35268 9.99999 0.714285 10.6384 0.714285 11.4286C0.714285 12.2187 1.35268 12.8571 2.14286 12.8571H8.57143V19.2857C8.57143 20.0759 9.20982 20.7143 10 20.7143C10.7902 20.7143 11.4286 20.0759 11.4286 19.2857V12.8571H17.8571C18.6473 12.8571 19.2857 12.2187 19.2857 11.4286C19.2857 10.6384 18.6473 9.99999 17.8571 9.99999H11.4286V3.57142Z" fill="white"/>
</svg>
